<?xml version="1.0" encoding="UTF-8" standalone="no"?>
<svg
   xmlns:dc="http://purl.org/dc/elements/1.1/"
   xmlns:cc="http://creativecommons.org/ns#"
   xmlns:rdf="http://www.w3.org/1999/02/22-rdf-syntax-ns#"
   xmlns:svg="http://www.w3.org/2000/svg"
   xmlns="http://www.w3.org/2000/svg"
   id="svg8"
   version="1.1"
   viewBox="0 0 300 300"
   height="50px"
   width="50px">
  <defs
     id="defs2" />
  <metadata
     id="metadata5">
    <rdf:RDF>
      <cc:Work
         rdf:about="">
        <dc:format>image/svg+xml</dc:format>
        <dc:type
           rdf:resource="http://purl.org/dc/dcmitype/StillImage" />
        <dc:title></dc:title>
      </cc:Work>
    </rdf:RDF>
  </metadata>
  <g
     id="layer1">
    <path
       id="path826"
       d="M 98.36957,277.15157 C 85.93123,262.46969 75.71293,250.33281 75.66223,250.18071 c -0.0634,-0.19024 4.74519,-0.27654 15.40799,-0.27654 h 15.50016 v -22.225 -22.225 h 13.89063 13.89062 v 22.225 22.225 h 16.0073 c 8.80401,0 16.00585,0.0893 16.00409,0.19844 -0.002,0.10914 -9.89695,11.86656 -21.9893,26.1276 -12.09236,14.26104 -22.30176,26.30863 -22.68755,26.7724 l -0.70144,0.84325 z M 33.32533,235.04894 c -0.67081,-0.33204 -1.43887,-1.00966 -1.85208,-1.63399 l -0.70598,-1.06668 -0.0707,-21.38455 -0.0707,-21.38455 H 22.95753 15.2892 V 141.16042 92.741659 h 7.66975 7.66974 l 0.0693,-42.399477 0.0693,-42.3994809 0.60865,-0.97885 c 0.33476,-0.538368 1.04913,-1.252743 1.5875,-1.5875 l 0.97885,-0.60865 h 57.28229 c 46.64077,0 57.4348,0.06441 58.10329,0.346721 0.98702,0.41683 60.07594,60.2110009 60.75847,61.4836469 0.42542,0.793252 0.46531,1.950998 0.46531,13.505612 v 12.637978 h 7.40833 7.40834 v 48.414571 48.41457 l -7.34219,0.0703 -7.34219,0.0703 -0.13229,21.43125 c -0.0959,15.54275 -0.21649,21.57664 -0.43873,21.96042 -0.48791,0.84255 -1.47379,1.66149 -2.53294,2.10403 -0.86622,0.36193 -4.68497,0.40951 -32.87087,0.40951 H 142.8183 v -4.7625 -4.7625 h 29.10417 29.10416 v -18.25668 -18.25668 l -80.36718,0.0666 -80.36718,0.0666 v 18.12396 18.12396 l 28.90573,0.0673 28.90573,0.0673 v 4.76133 4.76133 l -31.81615,-2.1e-4 -31.81614,-2.1e-4 z m 90.5075,-72.43709 c 9.97327,-2.16466 15.50895,-7.18467 17.70976,-16.06002 0.82811,-3.33961 0.826,-9.85253 -0.004,-12.8998 -2.31224,-8.48727 -8.63569,-13.45504 -18.69613,-14.6879 -4.15067,-0.50864 -13.42373,-0.30692 -18.32239,0.39859 l -1.12448,0.16195 v 21.64473 21.64473 l 1.65364,0.15322 c 0.9095,0.0843 2.01083,0.20198 2.44739,0.26158 0.43657,0.0596 3.71079,0.0711 7.27605,0.0254 5.39283,-0.069 6.91558,-0.17699 9.06036,-0.64251 z m -10.38328,-21.55997 v -14.39605 l 2.26768,-0.18889 c 7.48006,-0.62309 12.90889,2.25839 14.97177,7.9466 0.80856,2.22956 0.99957,7.7259 0.36726,10.56804 -1.57094,7.06107 -6.28013,10.46634 -14.47403,10.46634 h -3.13268 z m -41.33636,14.13145 0.0709,-7.80521 3.76553,-0.023 c 6.28715,-0.0384 10.82597,-1.58472 14.0165,-4.77524 4.04416,-4.04416 5.07918,-11.0842 2.41197,-16.40577 -2.02095,-4.03215 -5.9758,-6.43177 -11.94135,-7.24544 -3.81134,-0.51986 -15.97812,-0.0714 -17.98564,0.66291 -0.26089,0.0954 -0.33073,4.66743 -0.33073,21.64872 0,11.84026 0.082,21.60972 0.18216,21.70991 0.10019,0.1002 2.33261,0.14981 4.96094,0.11025 l 4.77877,-0.0719 z m 1.18585,-15.52801 -1.12448,-0.11283 v -6.43622 -6.43622 l 0.59531,-0.15954 c 1.17882,-0.31591 5.39876,-0.16537 6.76873,0.24147 2.7542,0.81791 4.26356,2.91858 4.26923,5.94177 0.006,3.20416 -1.64829,5.47183 -4.70706,6.45231 -1.38178,0.44292 -4.092,0.68082 -5.80173,0.50926 z m 88.77126,14.53582 0.0697,-8.79739 h 7.80164 7.80164 v -4.10104 -4.10104 h -7.80521 -7.80521 v -5.02709 -5.02708 h 8.33438 8.33437 v -4.10104 -4.10105 h -13.49375 -13.49375 v 21.91632 c 0,12.05398 0.0819,21.99824 0.18205,22.09837 0.10012,0.10012 2.39207,0.14973 5.09323,0.11024 l 4.91118,-0.0718 z m 38.95633,-71.106769 v -9.657292 h -27.5298 c -23.18261,0 -27.64263,-0.05894 -28.24427,-0.373253 -0.9593,-0.501164 -2.07268,-1.708084 -2.41743,-2.620534 -0.19228,-0.508913 -0.28141,-9.49682 -0.28141,-28.376564 V 14.424993 H 91.35685 40.15997 v 39.158335 39.158331 h 80.43333 80.43333 z M 184.12909,53.649474 C 178.58367,48.010541 169.10928,38.396244 163.0749,32.284369 l -10.97161,-11.1125 -0.0123,21.365104 -0.0123,21.365105 h 21.06647 21.06648 z"
       style="fill:#fff;stroke-width:0.26458332" />
  </g>
</svg>
